<?xml version="1.0" standalone="no"?>
<!DOCTYPE svg PUBLIC "-//W3C//DTD SVG 20010904//EN"
 "http://www.w3.org/TR/2001/REC-SVG-20010904/DTD/svg10.dtd">
<svg version="1.0" xmlns="http://www.w3.org/2000/svg"
 width="600.000000pt" height="400.000000pt" viewBox="0 0 600.000000 400.000000"
 preserveAspectRatio="xMidYMid meet">

<g transform="translate(0.000000,400.000000) scale(0.100000,-0.100000)"
fill="#000000" stroke="none">
<path d="M4925 2775 c-133 -30 -242 -86 -336 -172 -189 -176 -274 -419 -248
-716 11 -133 33 -216 84 -322 121 -249 327 -377 610 -378 209 0 352 64 437
195 l33 51 2 -64 c5 -107 11 -128 46 -149 50 -31 119 -27 159 9 l33 29 3 324
c3 372 2 375 -78 416 -44 22 -52 23 -292 20 l-248 -3 -26 -26 c-33 -33 -41
-92 -20 -142 23 -57 57 -67 231 -67 l146 0 -6 -22 c-17 -57 -83 -165 -127
-209 -131 -131 -345 -145 -492 -32 -216 165 -261 606 -88 854 84 121 203 174
371 167 86 -3 106 -7 166 -37 42 -21 89 -55 124 -91 64 -65 88 -80 128 -80 65
0 143 72 143 132 0 87 -117 204 -266 268 -132 57 -347 77 -489 45z"/>
<path d="M913 2761 c-23 -11 -47 -30 -55 -43 -10 -18 -14 -142 -18 -578 -5
-538 -6 -556 -26 -595 -55 -106 -202 -125 -295 -37 -26 25 -50 64 -73 117 -20
48 -43 87 -59 99 -38 28 -112 27 -160 -2 -103 -65 -75 -241 62 -385 85 -89
160 -127 291 -148 95 -14 214 2 301 42 81 37 162 117 204 198 52 103 55 140
55 718 0 304 -4 542 -9 556 -25 65 -139 95 -218 58z"/>
<path d="M1671 2750 c-52 -11 -107 -52 -136 -101 -19 -33 -20 -55 -23 -696 -3
-729 -5 -706 58 -738 37 -19 133 -19 170 0 56 29 60 49 60 323 l0 250 243 5
c264 5 306 12 423 69 160 78 254 232 254 419 0 223 -140 382 -395 450 -70 19
-114 22 -345 25 -146 2 -285 -1 -309 -6z m600 -263 c93 -42 139 -112 139 -212
0 -76 -25 -130 -79 -177 -66 -56 -126 -68 -344 -68 l-187 0 0 224 c0 123 3
232 6 241 6 15 28 16 218 13 169 -3 218 -7 247 -21z"/>
<path d="M3116 2739 c-54 -13 -95 -46 -117 -93 -17 -39 -19 -78 -19 -666 0
-585 2 -628 19 -665 22 -48 44 -69 94 -90 31 -13 106 -15 501 -15 499 0 505 1
532 51 30 59 10 164 -35 189 -13 6 -161 10 -408 10 -289 0 -392 3 -401 12 -9
9 -12 69 -12 210 l0 198 344 0 344 0 25 30 c14 16 28 43 32 59 9 42 -11 107
-42 130 -25 20 -38 21 -364 21 l-339 0 0 174 c0 96 3 181 6 190 5 14 49 16
386 16 l380 0 35 35 c34 34 35 38 31 96 -4 48 -9 65 -31 87 l-27 27 -448 2
c-246 1 -464 -3 -486 -8z"/>
</g>
</svg>
