<?xml version="1.0" standalone="no"?>
<!DOCTYPE svg PUBLIC "-//W3C//DTD SVG 20010904//EN"
 "http://www.w3.org/TR/2001/REC-SVG-20010904/DTD/svg10.dtd">
<svg version="1.0" xmlns="http://www.w3.org/2000/svg"
 width="600.000000pt" height="400.000000pt" viewBox="0 0 600.000000 400.000000"
 preserveAspectRatio="xMidYMid meet">

<g transform="translate(0.000000,400.000000) scale(0.100000,-0.100000)"
fill="#000000" stroke="none">
<path d="M2636 2926 c-53 -20 -85 -45 -118 -92 -16 -21 -161 -370 -324 -774
-318 -788 -321 -798 -278 -857 64 -89 225 -96 284 -13 10 15 51 110 91 211 39
101 73 190 76 197 4 10 80 12 350 10 l345 -3 72 -185 c84 -215 85 -216 125
-254 65 -62 204 -39 259 44 19 28 23 43 18 78 -5 38 -551 1413 -597 1503 -28
55 -67 98 -112 121 -52 26 -140 33 -191 14z m209 -703 l114 -333 -245 0 c-135
0 -244 4 -242 8 2 5 57 165 123 355 95 273 122 341 128 324 5 -12 60 -172 122
-354z"/>
<path d="M3715 2917 c-76 -31 -105 -67 -105 -128 0 -58 378 -1510 406 -1557
38 -65 92 -96 176 -100 107 -6 191 37 234 119 7 15 72 290 144 611 72 321 132
587 133 592 2 4 58 -241 126 -545 68 -305 129 -575 136 -601 18 -72 59 -124
121 -154 46 -23 64 -26 127 -22 89 4 142 34 181 100 28 48 406 1501 406 1560
0 73 -66 128 -165 135 -69 6 -114 -19 -141 -77 -12 -25 -86 -312 -165 -638
-92 -379 -146 -587 -151 -575 -4 10 -62 268 -128 573 -138 629 -140 635 -230
683 -113 59 -254 24 -311 -78 -22 -40 -52 -162 -149 -605 -67 -305 -124 -563
-128 -573 -5 -12 -60 199 -151 575 -79 326 -152 612 -161 635 -10 23 -30 49
-45 59 -33 22 -120 28 -160 11z"/>
<path d="M499 2885 c-26 -8 -64 -32 -86 -54 -75 -73 -73 -42 -73 -876 l0 -742
22 -28 c57 -72 210 -74 275 -3 17 18 18 48 23 367 l5 346 140 3 140 3 240
-338 c269 -378 286 -400 332 -419 49 -21 122 -17 173 9 55 28 81 63 87 118 6
58 -4 72 -274 399 l-219 264 67 17 c137 35 259 121 308 217 49 96 65 252 37
357 -46 172 -167 286 -368 346 -68 21 -96 23 -428 25 -290 3 -363 1 -401 -11z
m653 -266 c137 -29 201 -99 201 -221 0 -92 -35 -151 -113 -190 -76 -38 -154
-48 -382 -48 l-198 0 0 209 c0 115 4 221 10 235 l10 26 209 0 c117 0 233 -5
263 -11z"/>
</g>
</svg>
